<?xml version="1.0" encoding="utf-8"?>
<!-- Svg Vector Icons : http://www.onlinewebfonts.com/icon -->
<!DOCTYPE svg PUBLIC "-//W3C//DTD SVG 1.1//EN" "http://www.w3.org/Graphics/SVG/1.1/DTD/svg11.dtd">
<svg version="1.1" xmlns="http://www.w3.org/2000/svg" xmlns:xlink="http://www.w3.org/1999/xlink" x="0px" y="0px" viewBox="0 0 1000 1000" enable-background="new 0 0 1000 1000" xml:space="preserve">
<metadata> Svg Vector Icons : http://www.onlinewebfonts.com/icon </metadata>
<g><path fill="#FF7D7D"  d="M976.9,981.9c-10.8,10.8-28.3,10.8-39.1,0L18.1,62.2c-10.8-10.8-10.8-28.3,0-39.1l5-5c10.8-10.8,28.3-10.8,39.1,0l919.7,919.7c10.8,10.8,10.8,28.3,0,39.1L976.9,981.9z"/><path fill="#FF7D7D"  d="M18.1,976.9c-10.8-10.8-10.8-28.3,0-39.1L937.8,18.1c10.8-10.8,28.3-10.8,39.1,0l5,5c10.8,10.8,10.8,28.3,0,39.1L62.2,981.9c-10.8,10.8-28.3,10.8-39.1,0L18.1,976.9L18.1,976.9z"/></g>
</svg>
